{"title":"Enrique Iglesias - Tonight (I'm Lovin' You) feat. Ludacris","uid":6078739,"size":113730258,"categoryP":"video","categoryS":"music_videos","magnet":"?xt=urn:btih:16ea050d66261ad3302efbc011799242d19fac4c&amp;dn=Enrique+Iglesias+-+Tonight+%28I%5C%27m+Lovin%5C%27+You%29+feat.+Ludacris&amp;tr=udp%3A%2F%2Ftracker.openbittorrent.com%3A80&amp;tr=udp%3A%2F%2Fopen.demonii.com%3A1337&amp;tr=udp%3A%2F%2Ftracker.coppersurfer.tk%3A6969&amp;tr=udp%3A%2F%2Fexodus.desync.com%3A6969","seeders":0,"leechers":1,"uploader":"mithun09870","files":1,"time":1294007680,"description":"General\nComplete name                    :Enrique Iglesias - Tonight (I\\'m Lovin\\' You) feat. Ludacris.mp4\nFormat                           : MPEG-4\nFormat profile                   : Base Media / Version 2\nCodec ID                         : mp42\nFile size                        : 108 MiB\nDuration                         : 4mn 58s\nOverall bit rate                 : 3 047 Kbps\nEncoded date                     : UTC 2010-12-21 16:49:53\nTagged date                      : UTC 2010-12-21 16:49:53\ngsst                             : 0\ngstd                             : 298583\ngssd                             : B4A7D6341HH1293908039922546\ngshh                             :\n\nVideo\nID                               : 1\nFormat                           : AVC\nFormat/Info                      : Advanced Video Codec\nFormat profile                   : &lt;a class=&quot;__cf_email__&quot; href=&quot;/cdn-cgi/l/email-protection&quot; data-cfemail=&quot;c58daca2ad8589f1ebf5&quot;&gt;[email&amp;#160;protected]&lt;/a&gt;&lt;script cf-hash='f9e31' type=&quot;text/javascript&quot;&gt;\n/* &lt;![CDATA[ */!function(){try{var t=&quot;currentScript&quot;in document?document.currentScript:function(){for(var t=document.getElementsByTagName(&quot;script&quot;),e=t.length;e--;)if(t[e].getAttribute(&quot;cf-hash&quot;))return t[e]}();if(t&amp;&amp;t.previousSibling){var e,r,n,i,c=t.previousSibling,a=c.getAttribute(&quot;data-cfemail&quot;);if(a){for(e=&quot;&quot;,r=parseInt(a.substr(0,2),16),n=2;a.length-n;n+=2)i=parseInt(a.substr(n,2),16)^r,e+=String.fromCharCode(i);e=document.createTextNode(e),c.parentNode.replaceChild(e,c)}}}catch(u){}}();/* ]]&gt; */&lt;/script&gt;\nFormat settings, CABAC           : Yes\nFormat settings, ReFrames        : 1 frame\nFormat settings, GOP             : M=1, N=17\nCodec ID                         : avc1\nCodec ID/Info                    : Advanced Video Coding\nDuration                         : 4mn 58s\nBit rate mode                    : Variable\nBit rate                         : 2 917 Kbps\nMaximum bit rate                 : 14.5 Mbps\nWidth                            : 1 920 pixels\nHeight                           : 1 080 pixels\nDisplay aspect ratio             : 16:9\nFrame rate mode                  : Variable\nFrame rate                       : 24.000 fps\nMinimum frame rate               : 23.810 fps\nMaximum frame rate               : 24.390 fps\nColor space                      : YUV\nChroma subsampling               : 4:2:0\nBit depth                        : 8 bits\nScan type                        : Progressive\nBits/(Pixel*Frame)               : 0.059\nStream size                      : 104 MiB (96%)\nTagged date                      : UTC 2010-12-21 16:50:01\n\nAudio\nID                               : 2\nFormat                           : AAC\nFormat/Info                      : Advanced Audio Codec\nFormat profile                   : LC\nCodec ID                         : 40\nDuration                         : 4mn 58s\nBit rate mode                    : Variable\nBit rate                         : 125 Kbps\nMaximum bit rate                 : 209 Kbps\nChannel(s)                       : 2 channels\nChannel positions                : Front: L R\nSampling rate                    : 44.1 KHz\nCompression mode                 : Lossy\nStream size                      : 4.45 MiB (4%)\nTitle                            : (C) 2007 Google Inc. v08.13.2007.\nEncoded date                     : UTC 2010-12-21 16:49:57\nTagged date                      : UTC 2010-12-21 16:50:01\n\n","torrent":{"xt":"urn:btih:16ea050d66261ad3302efbc011799242d19fac4c","amp;dn":"Enrique+Iglesias+-+Tonight+%28I%5C%27m+Lovin%5C%27+You%29+feat.+Ludacris","amp;tr":["udp%3A%2F%2Ftracker.openbittorrent.com%3A80","udp%3A%2F%2Fopen.demonii.com%3A1337","udp%3A%2F%2Ftracker.coppersurfer.tk%3A6969","udp%3A%2F%2Fexodus.desync.com%3A6969"],"infoHash":"16ea050d66261ad3302efbc011799242d19fac4c","infoHashBuffer":{"type":"Buffer","data":[22,234,5,13,102,38,26,211,48,46,251,192,17,121,146,66,209,159,172,76]},"announce":[],"urlList":[]}}